<?xml version="1.0" encoding="UTF-8" standalone="no"?>
<!-- Created with Inkscape (http://www.inkscape.org/) -->

<svg
   xmlns:dc="http://purl.org/dc/elements/1.1/"
   xmlns:cc="http://creativecommons.org/ns#"
   xmlns:rdf="http://www.w3.org/1999/02/22-rdf-syntax-ns#"
   xmlns:svg="http://www.w3.org/2000/svg"
   xmlns="http://www.w3.org/2000/svg"
   xmlns:sodipodi="http://sodipodi.sourceforge.net/DTD/sodipodi-0.dtd"
   xmlns:inkscape="http://www.inkscape.org/namespaces/inkscape"
   version="1.1"
   id="svg4470"
   xml:space="preserve"
   width="800"
   height="800"
   viewBox="0 0 800 800"
   sodipodi:docname="lion-graphic-clipart-publicdomainvectors.org.svg"
   inkscape:version="0.92.4 (5da689c313, 2019-01-14)"><metadata
     id="metadata4476"><rdf:RDF><cc:Work
         rdf:about=""><dc:format>image/svg+xml</dc:format><dc:type
           rdf:resource="http://purl.org/dc/dcmitype/StillImage" /><dc:title></dc:title></cc:Work></rdf:RDF></metadata><defs
     id="defs4474"><clipPath
       clipPathUnits="userSpaceOnUse"
       id="clipPath4486"><path
         d="M 0,600 H 600 V 0 H 0 Z"
         id="path4484"
         inkscape:connector-curvature="0" /></clipPath></defs><sodipodi:namedview
     pagecolor="#ffffff"
     bordercolor="#666666"
     borderopacity="1"
     objecttolerance="10"
     gridtolerance="10"
     guidetolerance="10"
     inkscape:pageopacity="0"
     inkscape:pageshadow="2"
     inkscape:window-width="1920"
     inkscape:window-height="1018"
     id="namedview4472"
     showgrid="false"
     inkscape:zoom="0.98994071"
     inkscape:cx="401.69492"
     inkscape:cy="418.64407"
     inkscape:window-x="-8"
     inkscape:window-y="-8"
     inkscape:window-maximized="1"
     inkscape:current-layer="g4478" /><g
     id="g4478"
     inkscape:groupmode="layer"
     inkscape:label="lion-graphic-clipart-publicdomainvectors.org"
     transform="matrix(1.3333333,0,0,-1.3333333,0,800)"><g
       id="g4480"><g
         id="g4482"
         clip-path="url(#clipPath4486)"><path
           d="m 350.659,285.283 c 1.221,-1.796 2.684,-3.574 4.3,-5.344 1.62,-1.771 3.391,-3.532 5.261,-5.27 1.868,-1.745 3.829,-3.479 5.839,-5.181 2.004,-1.68 4.041,-3.388 6.078,-5.096 2.014,-1.67 4.03,-3.34 6.015,-4.985 1.929,-1.672 3.864,-3.271 5.622,-4.897 1.798,-1.602 3.439,-3.205 4.963,-4.763 0.775,-0.768 1.432,-1.573 2.152,-2.317 0.649,-0.784 1.275,-1.539 1.878,-2.266 0.557,-0.763 1.09,-1.493 1.596,-2.191 0.465,-0.731 0.905,-1.426 1.318,-2.08 0.36,-0.68 0.68,-1.334 1.024,-1.938 0.328,-0.608 0.516,-1.199 0.75,-1.732 0.478,-1.067 0.691,-1.958 0.889,-2.575 0.2,-0.623 0.307,-0.952 0.307,-0.952 0,0 0.075,0.336 0.214,0.97 0.092,0.635 0.406,1.605 0.377,2.839 0.004,0.616 0.071,1.328 0.018,2.081 -0.054,0.754 -0.161,1.567 -0.261,2.457 -0.164,0.862 -0.403,1.768 -0.632,2.745 -0.274,0.952 -0.652,1.917 -1.012,2.959 -0.42,0.995 -0.908,2.012 -1.413,3.072 -0.563,1.006 -1.142,2.077 -1.797,3.114 -1.329,2.058 -2.84,4.168 -4.563,6.159 -1.693,2.026 -3.566,3.972 -5.534,5.86 -1.959,1.894 -4.04,3.691 -6.129,5.44 -2.118,1.72 -4.239,3.398 -6.37,4.971 -2.116,1.591 -4.223,3.092 -6.25,4.528 -4.031,2.883 -7.832,5.458 -10.732,7.882 -1.503,1.201 -2.679,2.373 -3.686,3.489 -0.826,1.143 -1.631,2.215 -1.831,3.224 -0.202,0.522 -0.197,0.941 -0.252,1.365 -0.087,0.419 -0.02,0.828 0.055,1.142 0.099,0.644 0.151,0.986 0.151,0.986 0,0 -0.219,-0.269 -0.628,-0.777 -0.21,-0.25 -0.448,-0.552 -0.625,-1.052 -0.212,-0.473 -0.47,-1.082 -0.496,-1.739 -0.277,-1.365 0.011,-3.019 0.586,-4.799 0.659,-1.691 1.564,-3.589 2.818,-5.329 m 20.779,58.886 c -0.787,-3.169 -1.069,-6.034 -1.005,-8.396 0.009,-2.356 0.54,-4.21 1.039,-5.349 0.261,-0.576 0.531,-0.972 0.722,-1.223 0.198,-0.244 0.302,-0.367 0.302,-0.367 0,0 -0.189,0.637 -0.171,1.772 0.019,1.14 0.367,2.757 1.085,4.703 0.736,1.941 1.903,4.196 3.433,6.635 1.523,2.44 3.439,5.064 5.723,7.713 2.276,2.652 4.914,5.342 7.902,7.85 2.977,2.513 6.28,4.893 9.881,6.815 3.568,1.972 7.431,3.498 11.43,4.432 3.999,0.971 8.154,1.246 12.34,0.981 1.931,-0.098 4.135,-0.533 6.946,-0.876 2.681,-0.329 5.407,-0.516 8.14,-0.545 5.46,0.004 11.05,0.688 16.278,2.594 5.223,1.843 9.978,4.984 13.378,8.826 3.444,3.824 5.548,8.138 6.773,12.108 1.238,3.987 1.662,7.692 1.755,10.909 0.113,3.223 -0.216,5.988 -0.514,8.223 -0.302,2.238 -0.776,3.955 -1.066,5.113 -0.326,1.158 -0.559,1.755 -0.559,1.755 0,0 -0.081,-0.63 -0.231,-1.809 -0.141,-1.168 -0.468,-2.873 -0.882,-4.989 -0.411,-2.117 -1.102,-4.64 -2.003,-7.4 -0.933,-2.753 -2.17,-5.741 -3.88,-8.618 -0.875,-1.428 -1.845,-2.833 -2.947,-4.141 -1.131,-1.291 -2.372,-2.492 -3.73,-3.564 -1.388,-1.043 -2.895,-1.943 -4.503,-2.707 -1.625,-0.749 -3.39,-1.29 -5.236,-1.732 -3.71,-0.83 -7.853,-1.034 -12.171,-0.693 -2.158,0.149 -4.364,0.39 -6.59,0.78 -2.089,0.38 -4.774,0.924 -7.812,1.18 -5.735,0.544 -11.639,-0.05 -17.108,-1.601 -2.729,-0.794 -5.373,-1.773 -7.851,-2.975 -2.473,-1.22 -4.797,-2.596 -6.97,-4.084 -4.318,-3.026 -7.943,-6.527 -10.94,-10.129 -2.985,-3.617 -5.327,-7.346 -7.132,-10.942 -1.792,-3.606 -3.04,-7.082 -3.826,-10.249 m 15.596,84.226 c 9.028,20.287 28.977,17.042 35.288,14.785 -23.021,17.351 -38.426,22.161 -64.117,23.282 16.443,-11.627 26.794,-30.962 28.829,-38.067 m 23.491,-126.5 c 1.365,-1.017 2.88,-1.97 4.499,-2.779 2.885,-1.439 6.113,-2.407 9.502,-2.379 2.619,-0.138 5.125,0.495 7.454,1.221 2.255,0.872 4.389,1.902 6.174,3.212 3.673,2.519 6.491,5.52 8.834,8.482 2.344,2.976 4.174,5.979 5.714,8.796 3.092,5.629 4.917,10.605 6.053,14.11 1.129,3.511 1.522,5.589 1.522,5.589 0,0 -1.159,-1.737 -3.191,-4.773 -2.051,-2.994 -5.031,-7.22 -8.84,-11.93 -1.918,-2.336 -4.104,-4.752 -6.505,-7.09 -2.404,-2.321 -5.103,-4.52 -8.007,-6.149 -1.443,-0.856 -2.956,-1.411 -4.446,-1.908 -0.259,-0.05 -0.514,-0.101 -0.767,-0.152 -1.251,-0.248 -2.488,-0.45 -3.709,-0.311 -2.942,0.104 -5.896,1.488 -8.664,3.582 -3.416,2.494 -6.266,5.012 -10.82,7.187 -4.167,2.161 -8.368,3.321 -12.583,4.08 -0.286,0.051 -0.569,0.082 -0.854,0.123 -1.803,0.252 -3.599,0.326 -5.338,0.466 -2.019,-0.025 -3.989,-0.092 -5.884,-0.225 -1.881,-0.298 -3.716,-0.472 -5.445,-0.86 -1.714,-0.454 -3.384,-0.785 -4.929,-1.303 -4.513,-1.38 -8.214,-3.132 -11.103,-4.751 -1.095,-0.612 -2.084,-1.209 -2.94,-1.751 -1.119,-0.719 -2.023,-1.36 -2.737,-1.892 -1.288,-0.959 -1.936,-1.562 -1.936,-1.562 0,0 1.98,0.746 5.45,1.752 3.468,0.997 8.455,2.223 14.39,2.929 1.476,0.209 3.034,0.217 4.614,0.342 1.586,0.066 3.221,0.009 4.882,0.024 0.241,-0.018 0.486,-0.038 0.728,-0.058 1.425,-0.113 2.869,-0.222 4.332,-0.381 1.675,-0.389 3.424,-0.528 5.116,-1.019 3.357,-0.909 6.872,-2.21 9.877,-3.917 2.838,-1.371 6.342,-4.254 9.557,-6.705 m 71.426,125.639 c 18.567,-2.896 32.171,11.385 30.313,24.957 -2.273,16.606 -1.376,35.81 9.064,41.307 -17.803,3.338 -29.05,-15.889 -28.345,-27.796 0.573,-9.638 6.736,-29.567 -11.032,-38.468 m -17.261,-6.703 c 24.371,10.169 30.179,37.274 17.983,52.169 -14.923,18.225 -27.958,41.887 -19.482,56.145 -23.788,-9.079 -22.755,-37.66 -12.615,-53.554 7.305,-11.445 28.862,-31.043 14.114,-54.76 m -60.836,12.535 c -9.956,-3.957 -8.616,-25.533 -7.031,-37.574 1.539,9.971 5.102,25.306 12.581,27.224 0.555,0.142 1.094,0.213 1.602,0.213 5.026,0 6.448,-6.386 7.95,-13.145 1.448,-6.501 3.086,-13.872 7.896,-16.226 2.091,-1.023 4.4,-1.544 6.86,-1.544 5.935,0.003 11.198,3.004 13.572,5.794 1.209,1.419 1.769,2.841 1.583,4.004 -2.939,18.263 -23.012,32.426 -38.314,32.426 -2.488,0 -4.74,-0.394 -6.699,-1.172 M 530.483,316.998 c 1.651,2.281 -3.166,18.2 -9.176,33.661 l -3.364,-25.197 -1.588,1.132 c -0.435,0.312 -42.152,29.942 -58.948,32.232 8.086,-7.959 38.031,-36.699 50.901,-49.031 7.703,1.288 20.066,4.281 22.175,7.203 M 499.93,250.253 c -14.323,5.518 -33.437,15.985 -42.312,10.823 -0.404,-0.236 -0.797,-0.488 -1.185,-0.739 2.146,0.028 4.562,-0.153 7.11,-0.566 2.907,-0.465 5.963,-1.184 8.977,-2.045 6.035,-1.72 11.874,-4.026 16.191,-5.884 2.55,-1.102 7.545,-1.47 11.219,-1.589 m -57.91,-12.64 c -1.117,-6.301 -0.207,-11.814 2.61,-14.014 l 7.923,-8.68 c 0.058,1.417 0.082,2.693 -0.013,2.786 -0.21,0.21 -0.562,0.536 -0.859,0.91 -0.672,0.767 -1.504,1.847 -2.41,3.187 -1.83,2.656 -3.928,6.368 -5.516,10.311 -0.74,1.817 -1.319,3.688 -1.735,5.5 m 120.762,35.085 c -3.531,-2.779 -37.241,-19.495 -47.519,-24.884 -2.657,-1.393 -7.193,-0.468 -12.643,1.447 l -8.183,-4.342 -10.233,-7.111 3.422,10.108 c -0.22,0.121 -0.427,0.238 -0.654,0.364 -4.022,2.205 -9.496,4.993 -15.202,7.219 -2.849,1.115 -5.752,2.099 -8.529,2.815 -2.773,0.726 -5.421,1.164 -7.714,1.276 -0.058,0.003 -0.112,0 -0.173,0.003 -0.183,-0.132 -0.373,-0.256 -0.551,-0.392 0.252,-2.472 -0.177,-6.381 -0.983,-12.447 -1.596,-12.013 8.025,-10.661 8.307,-14.655 -13.035,-0.974 -14.22,9.159 -17.971,12.855 -0.597,-1.462 -1.087,-2.928 -1.475,-4.378 0.172,-0.69 0.413,-1.388 0.651,-2.109 0.649,-1.774 1.522,-3.592 2.537,-5.336 1.946,-3.357 4.308,-6.436 6.283,-8.61 l 9.731,1.563 -6.934,-7.371 -1.58,-4.689 1.467,-1.608 c 0,0 -6.673,-20.602 -27.144,-22.57 0,0 -18.393,9.882 -28.94,34.928 -0.213,0.509 0,0 -0.101,0.452 l 28.093,-25.812 19.093,13.184 -12.164,17.671 c 0,0 -15.997,40.245 13.694,36.849 29.033,-3.323 56.05,-14.237 57.237,-14.721 -0.753,0.436 -1.507,0.893 -2.254,1.39 -2.651,1.738 -5.238,3.863 -7.779,5.989 -1.721,1.479 -3.398,2.987 -5.03,4.429 -3.111,2.753 -6.043,5.258 -8.722,6.795 -1.022,0.603 -1.995,1.006 -2.893,1.333 -0.903,0.268 -1.732,0.377 -2.427,0.373 -0.685,-0.048 -1.252,-0.073 -1.617,-0.195 -0.383,-0.084 -0.589,-0.129 -0.589,-0.129 0.025,-0.069 0.639,0.58 2.11,0.997 1.458,0.407 3.8,0.396 6.248,-0.55 4.977,-1.796 10.221,-6.171 15.196,-10.402 1.826,-1.583 3.642,-3.156 5.416,-4.622 3.043,-2.514 5.975,-4.707 8.649,-6.08 2.098,-1.097 4.02,-1.746 5.406,-1.915 0.684,-0.126 1.275,-0.16 1.662,-0.177 0.387,-0.026 0.598,-0.038 0.598,-0.038 l -9.765,4.915 5.805,2.98 c -0.778,0.446 -1.555,0.915 -2.326,1.431 -2.65,1.737 -5.239,3.863 -7.775,5.988 -1.725,1.48 -3.403,2.987 -5.033,4.431 -3.113,2.752 -6.044,5.257 -8.723,6.795 -1.019,0.601 -1.993,1.007 -2.893,1.332 -0.903,0.268 -1.735,0.375 -2.428,0.373 -0.681,-0.05 -1.252,-0.073 -1.617,-0.196 -0.385,-0.084 -0.587,-0.129 -0.587,-0.129 0.026,-0.068 0.635,0.581 2.11,0.997 1.458,0.406 3.8,0.396 6.246,-0.551 4.979,-1.796 10.22,-6.17 15.197,-10.401 1.826,-1.584 3.643,-3.157 5.418,-4.625 3.044,-2.512 5.974,-4.706 8.647,-6.077 2.099,-1.098 4.02,-1.745 5.405,-1.913 0.683,-0.128 1.272,-0.165 1.665,-0.18 0.385,-0.022 0.595,-0.036 0.595,-0.036 l -9.742,4.901 4.996,2.564 c -1.161,0.608 -2.332,1.294 -3.491,2.066 -2.65,1.739 -5.239,3.864 -7.773,5.986 -1.728,1.481 -3.409,2.99 -5.04,4.436 -3.11,2.752 -6.04,5.255 -8.717,6.791 -1.023,0.599 -1.995,1.006 -2.894,1.332 -0.903,0.266 -1.731,0.374 -2.426,0.373 -0.686,-0.05 -1.253,-0.074 -1.616,-0.197 -0.385,-0.083 -0.589,-0.128 -0.589,-0.128 0.027,-0.07 0.634,0.58 2.109,0.997 1.46,0.405 3.8,0.395 6.248,-0.552 4.979,-1.794 10.221,-6.168 15.196,-10.4 1.825,-1.582 3.641,-3.156 5.415,-4.62 3.044,-2.512 5.974,-4.709 8.65,-6.082 2.098,-1.097 4.022,-1.745 5.404,-1.915 0.685,-0.126 1.277,-0.161 1.666,-0.177 0.388,-0.025 0.596,-0.038 0.596,-0.038 l -8.527,4.291 12.247,6.294 2.347,10.011 -2.656,10.031 14.59,-11.483 -17.621,34.001 -0.661,29.965 -37.026,77.193 c 0,0 49.592,-71.381 49.076,-73.675 -0.516,-2.296 -4.284,-17.748 -2.795,-21.489 1.486,-3.742 20.833,-49.723 17.297,-52.507 m -194.178,207.65 c 57.772,-14.269 84.718,-45.843 86.861,-74.73 15.425,32.295 -5.694,86.824 -71.222,97.181 -32.304,5.106 -92.41,12.967 -109.357,30.767 9.483,-28.608 54.711,-43.583 93.718,-53.218 M 399.137,159.11 c 12.61,-13.888 40.203,-34.277 41.79,-48.501 4.476,13.707 -11.405,37.069 -26.883,54.143 -22.929,25.291 -24.224,49.545 -14.375,64.66 -19.742,-11.301 -25.759,-42.529 -0.532,-70.302 m -16.025,83.134 c -28.236,-8.253 -49.644,-51.577 -26.304,-94.124 11.668,-21.277 40.211,-55.248 37.916,-73.617 9.764,15.889 -3.149,50.067 -17.468,76.214 -21.198,38.728 -11.089,75.489 5.856,91.527 m -16.096,12.641 c -34.147,1.057 -78.512,-41.657 -68.061,-97.031 5.222,-27.694 26.108,-77.598 16.96,-97.052 16.501,14.025 14.546,56.409 8.157,90.429 -9.463,50.39 18.461,92.051 42.944,103.654 m -11.459,14.511 C 318.764,285.03 258.763,256.743 246.67,191.913 240.621,159.498 242.239,96.819 224.006,79.481 c 23.947,8.297 39.793,55.352 47.254,95.169 11.053,58.968 52.67,92.475 84.297,94.746 m -12.964,21.702 c -43.172,30.394 -119.841,12.841 -153.43,-67.514 -16.802,-40.179 -32.534,-118.238 -60.88,-135.565 33.219,4.07 66.73,60.434 87.404,109.774 30.625,73.076 85.435,99.144 126.906,93.305 m -10.018,234.695 c 22.11,-8.162 57.687,-16.064 57.687,-16.064 0,0 -17.57,20.336 -44.933,29.438 -17.182,5.712 -50.717,17.152 -57.025,29.438 0.662,-13.897 23.409,-35.11 44.271,-42.812 M 435.61,490.539 c 0,0 -10.147,24.432 -31.763,43.523 -13.574,11.988 -37.997,36.805 -38.993,50.58 -4.833,-13.043 7.79,-41.471 23.969,-56.729 17.148,-16.17 46.787,-37.374 46.787,-37.374 m -191.388,4.41 c 24.093,-6.041 62.276,-10.281 62.276,-10.281 0,0 -21.916,17.242 -51.629,23.672 -18.649,4.036 -53.895,14.29 -61.903,26.447 2.271,-14.489 28.518,-34.136 51.256,-39.838 m -84.499,-46.382 c 29.274,-2.904 74.732,-1.259 74.732,-1.259 0,0 -28.656,16.407 -64.578,18.79 -22.549,1.499 -65.613,7.403 -77.095,20.259 5.167,-16.578 39.317,-35.049 66.941,-37.79 m -43.459,-67.828 c 30.148,3.901 75.529,16.152 75.529,16.152 0,0 -32.673,9.838 -69.389,3.867 -23.054,-3.747 -67.785,-7.841 -82.343,2.425 9.067,-15.485 47.755,-26.123 76.203,-22.444 M 398.129,143.406 c 0,0 4.387,-21.009 18.719,-39.498 8.996,-11.604 24.698,-35.091 23.401,-46.219 5.832,9.662 0.084,34.233 -10.498,48.845 -11.213,15.482 -31.622,36.872 -31.622,36.872 m -56.203,3.685 c 0,0 -3.021,-27.3 7.06,-55.492 6.33,-17.695 16.093,-52.508 10.091,-65.529 10.935,9.436 13.711,41.608 6.652,63.592 -7.485,23.295 -23.803,57.429 -23.803,57.429 m -58.518,20.395 c 0,0 -11.463,-30.36 -8.194,-65.577 2.053,-22.112 3.016,-64.815 -7.67,-77.959 15.282,7.593 27.895,43.6 26.261,70.828 -1.732,28.856 -10.397,72.708 -10.397,72.708 m -81.391,-46.962 c -4.289,-21.788 -15.455,-63.018 -29.426,-72.598 16.806,2.959 39.097,33.92 45.236,60.498 6.509,28.165 10.614,72.677 10.614,72.677 0,0 -19.588,-25.872 -26.424,-60.577 m -57.021,56.472 c 18.987,28.072 42.244,75.04 42.244,75.04 0,0 -32.335,-20.05 -54.441,-55.14 -13.877,-22.026 -43.468,-62.43 -62.79,-67.023 19.633,-3.85 57.068,20.635 74.987,47.123 m -18.121,112.976 c 29.821,16.101 72.167,46.983 72.167,46.983 0,0 -37.942,-2.813 -73.774,-23.694 -22.493,-13.109 -67.419,-35.239 -86.675,-30.369 15.625,-12.496 60.14,-8.113 88.282,7.08 m 64.8,-13.818 c 57.812,51.318 116.508,54.041 151.874,32.75 0.465,0.221 0.962,0.448 1.495,0.685 -27.215,44.257 -102.056,58.432 -166.152,1.433 -32.672,-29.045 -86.206,-94.265 -119.389,-97.618 31.826,-10.761 92.014,27.1 132.172,62.75 m 95.217,174.554 c 59.306,-8.381 87.031,-46.402 90.712,-77.844 15.843,46.586 -11.742,93.032 -76.939,102.188 -32.605,4.578 -92.697,1.115 -110.803,18.521 9.346,-23.511 56.986,-37.206 97.03,-42.865 M 194.705,387.422 C 150.134,371.726 76.333,330.584 41.766,340.803 c 20.092,-17.418 62.869,-14.571 105.839,-4.245 8.655,2.08 39.522,11.386 46.106,13.698 81.111,28.482 152.022,4.129 160.731,-28.406 5.193,53.75 -70.615,96.957 -159.737,65.572 m 47.734,21.255 c -48.602,-1.364 -107.83,5.262 -123.648,31.245 24.973,-16.976 95.498,-0.763 135.067,0.383 79.121,2.291 126.749,-47.939 109.575,-94.852 1.352,28.182 -49.005,65.246 -120.994,63.224"
           style="fill:#231f20;fill-opacity:1;fill-rule:nonzero;stroke:none"
           id="path4488"
           inkscape:connector-curvature="0" /></g></g></g></svg>