<?xml version="1.0" encoding="utf-8"?>
<svg version="1.1" id="Layer_1" xmlns="http://www.w3.org/2000/svg" xmlns:xlink="http://www.w3.org/1999/xlink" x="0px" y="0px"
	 viewBox="0 0 1430 1674.146" enable-background="new 0 0 1430 1674.146" xml:space="preserve">
<g>
	<path d="M1017.067,37.073h0.942c14.849,13.657,254.312,228.485,260.467,234.008c12.703,12.479,108.547,415.541,119.858,450.608
		v2.375c-2.14,5.36,7.886-27.339-138.825,459.192c-4.869,15.681,17.457-26.481-201.342,366.933
		c-8.097,11.716,30.967-1.209-270,79.15c-9.208,2.633-18.575,4.742-27.675,7.733h-1.117c-7.55-73.108-15.508-146.183-23.125-219.283
		c6.273-2.338,130.375-43.827,136.175-45.758c3.43-1.076-0.287,6.528,42.667-106.517c10.15-25.375-23.752,45.263,203.308-419.217
		c1.622-3.642,5.159,18.709-58.467-301.733c-0.645-4.782,6.541,7.041-128.033-172.733c-5.697-6.436,19.825-3.171-206.217-18.917
		c0.396-14.199,6.086-157.348,7.15-179.767C919.198,83.855,1009.549,41.455,1017.067,37.073z"/>
	<path d="M412.408,42.515c94.292,44.733,188.517,89.633,282.833,134.333c3.818,2.574,0.906-1.445,3.142,28.558
		c1.9,50.5,4.183,100.992,5.925,151.492c-229.055,16.061-200.052,12.204-206.675,19.467
		C354.247,566.842,372.271,539.612,368.9,553.656c-64.68,323.065-59.6,288.348-55.192,298.758
		C534.553,1301.72,505.974,1242.788,514.7,1264.89c47.164,123.539,37.368,103.57,47.892,107.95
		c53.158,15.825,106.342,31.6,159.467,47.533c-2.653,33.125-14.438,158.513-19.467,216.7h-1.3
		c-11.145-3.301-321.469-79.368-322.483-79.617c-3.732-0.863,11.331,24.053-200.617-355.233
		c-9.114-16.477-134.285-439.56-146.525-476.325v-1.742c3.552-10.428,112.339-441.865,115.1-444.467
		C425.743,30.387,406.536,47.484,412.408,42.515z"/>
	<path d="M793.392,381.415c2.683-0.108,4.617,2.325,7.342,2.083c5.486,0.368,104.588,7.398,111.425,8.217
		c3.817,3.983,6.583,8.875,9.992,13.208c125.873,172.545,110.209,149.053,113.4,161.392c20.25,87.825,40.492,175.65,60.75,263.475
		c-136.469-126.449-90.122-103.303-167.875-133.317c-2.696,1.152-31.467,19.751-35.967,22.992c-1.975,4.692-3.1,9.733-4.7,14.575
		c-23.37,77.402-16.43,25.205-24.692,220.508c-6.301-0.428-48.259-6.758-63.292-8.742c-2.965-0.681-80.115,42.735-81.117,43.308
		c-5.435,2.564-73.891-39.471-84.45-43.283c-20.859,2.553-58.682,8.548-64.792,8.842c-0.039-1.003-6.37-160.169-7.042-162.558
		c-23.5-77.633-21.544-72.509-23.675-73.733c-35.582-22.997-34.103-22.425-35.583-21.525
		c-85.275,34.589-18.543-1.878-166.592,132.808c1.057-5.758,61.538-270.575,63.558-273.317
		c123.925-169.936,118.093-162.139,120.183-164.7c6.429-0.431,118.88-8.512,131.125-9.583c0.183-0.992,0.383-1.967,0.583-2.95
		C740.867,375.485,687.405,373.236,793.392,381.415z"/>
	<path d="M975.183,735.565c20.971,20.474,109.057,107.598,112.183,110.758c-139.147,290.322-80.829,161.526-181.658,401.5
		c-4.815-2.954-175.971-108.302-179.533-110.933c-2.635-38.067-2.977-30.572,0.817-35.3c53.342-57.05,47.066-51.818,52.517-53.317
		c63.626-18.193,42.09-6.58,96.708-51.65c3.742-3.433,8.2-6.142,11.558-9.95c7.678-133.109,12.583-222.456,13.6-234.867
		C957.881,750.745,939.528,757.064,975.183,735.565z"/>
	<path d="M457.408,735.673c9.1,5.183,17.825,11.075,27.075,15.95c15.525,0.392,31.092-0.067,46.633,0.217
		c1.032,10.098,6.374,110,13.7,235.233c5.114,4.323,52.766,43.752,56.392,46.258c53.347,16.02,54.83,14.848,57.25,17.775
		c53.181,56.936,50.612,53.423,50.008,55.917c-2.98,33.948-0.7,28.73-4.408,31.633
		c-181.264,111.737-173.371,107.241-177.192,109.183c-104.786-248.175-40.407-107.043-181.7-401.458
		C366.984,824.929,449.608,743.002,457.408,735.673z"/>
	<path d="M630.025,955.373c2.092-0.325,4.467-1.125,6.392,0.217c78.144,45.278,72.773,41.92,74.225,43.325
		c0.584,9.361,4.563,87.64,4.608,95.242c-8.101-7.262-53.838-61.708-59.75-64.217c-79.641-34.862-75.222-32.543-75.2-34.675
		c-1.867-9.75-4.258-19.392-5.775-29.2C592.992,962.332,611.542,959.031,630.025,955.373z"/>
	<path d="M797.683,954.823c3.641-0.028,32.992,5.877,60.483,11.033c-1.55,9.133-3.85,18.125-5.442,27.258
		c-1.417,5.279,7.998-0.05-72.2,35.25c-12.853,5.944-46.041,48.896-63.25,65.808c0.192-8.904,4.408-92.775,4.467-93.775
		c-0.275-2.5,2.425-3.108,4.075-4.192C750.822,981.848,791.121,958.275,797.683,954.823z"/>
	<path d="M717.458,1146.273c20.612,16.781-13.961-8.109,167.592,111.75c-0.743,4.55-20.399,92.153-22.1,99.5
		c-48.167,12.292-96.5,23.933-144.65,36.233c-6.959-0.193-147.732-35.946-148.733-36.2c-7.408-33.142-14.967-66.258-22.092-99.45
		C599.084,1224.052,687.724,1166.398,717.458,1146.273z"/>
</g>
</svg>
